# xmcd CD database file
# Copyright (C) 1997 Ti Kan
# 
# Track frame offsets:
#     150
#     11070
#     25452
#     40660
#     53347
#     73232
#     86767
#     106282
#     113827
#     126825
# 
# Disc length: 1920 seconds
# 
# Revision: 1
# Processed by: cddbd v1.4b41PL1 Copyright (c) Steve Scherf et al.
# Submitted via: DiscPlay 4.0.3
# 
DISCID=80077e0a
DTITLE=Siegel - Schwall - The Best Of Siegel-Schwall
DYEAR=1900
DGENRE=
TTITLE0=Walk In My Mind
TTITLE1=Wouldn't Quit You
TTITLE2=Going To New York
TTITLE3=Little Baby
TTITLE4=Angel Food Cake
TTITLE5=I Like It Where We Walked
TTITLE6=Bring It With You When You Come
TTITLE7=Mama/Papa
TTITLE8=Yes I Love You
TTITLE9=Tell Me
EXTD=
EXTT0=
EXTT1=
EXTT2=
EXTT3=
EXTT4=
EXTT5=
EXTT6=
EXTT7=
EXTT8=
EXTT9=
PLAYORDER=
